<svg width="512" height="512" viewBox="0 0 512 512" fill="none" xmlns="http://www.w3.org/2000/svg">
<circle cx="256" cy="256" r="256" fill="#171836"/>
<mask id="path-2-outside-1_1_8" maskUnits="userSpaceOnUse" x="73" y="79" width="358" height="355" fill="black">
<rect fill="white" x="73" y="79" width="358" height="355"/>
<path d="M137.784 423.664C129.017 423.664 122.355 421.735 117.796 417.878C113.588 414.021 111.484 408.761 111.484 402.098C111.484 395.786 113.413 388.948 117.27 381.584C121.127 374.22 126.563 367.382 133.576 361.07C135.68 359.317 137.433 358.265 138.836 357.914C139.888 357.914 140.765 358.265 141.466 358.966C141.817 359.317 141.992 360.018 141.992 361.07C141.992 363.525 140.414 366.33 137.258 369.486C127.439 379.655 122.53 388.247 122.53 395.26C122.53 399.117 124.283 402.624 127.79 405.78C131.297 408.936 135.329 410.339 139.888 409.988C157.421 409.287 175.481 405.429 194.066 398.416C212.651 391.403 230.009 381.759 246.14 369.486C262.271 356.862 275.596 342.485 286.116 326.354C293.831 315.133 297.688 305.314 297.688 296.898C297.688 286.027 290.675 280.592 276.648 280.592C274.193 280.592 271.388 280.943 268.232 281.644C265.076 281.995 261.569 282.521 257.712 283.222L231.412 289.008C210.021 293.567 191.085 297.599 174.604 301.106C158.123 304.262 143.395 305.84 130.42 305.84C115.341 305.84 103.594 303.561 95.1781 299.002C87.1127 294.093 83.0801 285.852 83.0801 274.28C83.0801 269.02 84.1321 262.708 86.2361 255.344C93.2494 232.2 112.01 207.653 142.518 181.704C163.207 164.171 186.351 148.566 211.95 134.89C237.549 120.863 263.323 109.817 289.272 101.752C315.572 93.336 340.119 89.128 362.912 89.128C380.445 89.128 394.297 92.9853 404.466 100.7C414.986 108.415 420.246 118.935 420.246 132.26C420.246 144.533 415.863 157.683 407.096 171.71C404.641 175.217 402.537 176.97 400.784 176.97C400.083 176.97 399.381 176.444 398.68 175.392C397.979 173.989 397.628 172.587 397.628 171.184C397.628 170.833 397.628 170.307 397.628 169.606C397.979 168.554 398.329 167.327 398.68 165.924C401.485 157.508 402.888 149.443 402.888 141.728C402.888 129.805 398.68 120.863 390.264 114.902C382.199 108.941 370.451 106.661 355.022 108.064C328.021 110.869 297.162 119.461 262.446 133.838C238.951 143.657 216.684 155.229 195.644 168.554C174.955 181.879 157.071 196.081 141.992 211.16C127.264 225.888 117.095 240.791 111.484 255.87C110.081 258.675 109.38 262.007 109.38 265.864C109.38 279.891 123.231 286.904 150.934 286.904C164.259 286.904 178.812 285.501 194.592 282.696C210.723 279.891 229.308 276.384 250.348 272.176L268.758 268.494C275.07 267.442 281.207 266.916 287.168 266.916C298.389 266.916 307.331 269.195 313.994 273.754C320.657 278.313 323.988 284.625 323.988 292.69C323.988 300.054 320.832 308.821 314.52 318.99C308.559 328.458 301.545 337.575 293.48 346.342C285.415 354.758 276.473 362.999 266.654 371.064C246.666 387.195 225.275 399.994 202.482 409.462C179.689 418.93 158.123 423.664 137.784 423.664Z"/>
</mask>
<path d="M137.784 423.664C129.017 423.664 122.355 421.735 117.796 417.878C113.588 414.021 111.484 408.761 111.484 402.098C111.484 395.786 113.413 388.948 117.27 381.584C121.127 374.22 126.563 367.382 133.576 361.07C135.68 359.317 137.433 358.265 138.836 357.914C139.888 357.914 140.765 358.265 141.466 358.966C141.817 359.317 141.992 360.018 141.992 361.07C141.992 363.525 140.414 366.33 137.258 369.486C127.439 379.655 122.53 388.247 122.53 395.26C122.53 399.117 124.283 402.624 127.79 405.78C131.297 408.936 135.329 410.339 139.888 409.988C157.421 409.287 175.481 405.429 194.066 398.416C212.651 391.403 230.009 381.759 246.14 369.486C262.271 356.862 275.596 342.485 286.116 326.354C293.831 315.133 297.688 305.314 297.688 296.898C297.688 286.027 290.675 280.592 276.648 280.592C274.193 280.592 271.388 280.943 268.232 281.644C265.076 281.995 261.569 282.521 257.712 283.222L231.412 289.008C210.021 293.567 191.085 297.599 174.604 301.106C158.123 304.262 143.395 305.84 130.42 305.84C115.341 305.84 103.594 303.561 95.1781 299.002C87.1127 294.093 83.0801 285.852 83.0801 274.28C83.0801 269.02 84.1321 262.708 86.2361 255.344C93.2494 232.2 112.01 207.653 142.518 181.704C163.207 164.171 186.351 148.566 211.95 134.89C237.549 120.863 263.323 109.817 289.272 101.752C315.572 93.336 340.119 89.128 362.912 89.128C380.445 89.128 394.297 92.9853 404.466 100.7C414.986 108.415 420.246 118.935 420.246 132.26C420.246 144.533 415.863 157.683 407.096 171.71C404.641 175.217 402.537 176.97 400.784 176.97C400.083 176.97 399.381 176.444 398.68 175.392C397.979 173.989 397.628 172.587 397.628 171.184C397.628 170.833 397.628 170.307 397.628 169.606C397.979 168.554 398.329 167.327 398.68 165.924C401.485 157.508 402.888 149.443 402.888 141.728C402.888 129.805 398.68 120.863 390.264 114.902C382.199 108.941 370.451 106.661 355.022 108.064C328.021 110.869 297.162 119.461 262.446 133.838C238.951 143.657 216.684 155.229 195.644 168.554C174.955 181.879 157.071 196.081 141.992 211.16C127.264 225.888 117.095 240.791 111.484 255.87C110.081 258.675 109.38 262.007 109.38 265.864C109.38 279.891 123.231 286.904 150.934 286.904C164.259 286.904 178.812 285.501 194.592 282.696C210.723 279.891 229.308 276.384 250.348 272.176L268.758 268.494C275.07 267.442 281.207 266.916 287.168 266.916C298.389 266.916 307.331 269.195 313.994 273.754C320.657 278.313 323.988 284.625 323.988 292.69C323.988 300.054 320.832 308.821 314.52 318.99C308.559 328.458 301.545 337.575 293.48 346.342C285.415 354.758 276.473 362.999 266.654 371.064C246.666 387.195 225.275 399.994 202.482 409.462C179.689 418.93 158.123 423.664 137.784 423.664Z" fill="white"/>
<path d="M117.796 417.878L111.039 425.25L111.185 425.384L111.337 425.512L117.796 417.878ZM117.27 381.584L108.412 376.944L108.412 376.944L117.27 381.584ZM133.576 361.07L127.174 353.388L127.028 353.51L126.886 353.637L133.576 361.07ZM138.836 357.914V347.914H137.605L136.411 348.213L138.836 357.914ZM141.466 358.966L148.537 351.895L148.537 351.895L141.466 358.966ZM137.258 369.486L130.187 362.415L130.125 362.477L130.064 362.54L137.258 369.486ZM127.79 405.78L121.1 413.213L121.1 413.213L127.79 405.78ZM139.888 409.988L139.488 399.996L139.305 400.003L139.121 400.017L139.888 409.988ZM194.066 398.416L197.597 407.772L197.597 407.772L194.066 398.416ZM246.14 369.486L252.195 377.444L252.249 377.403L252.303 377.361L246.14 369.486ZM286.116 326.354L277.876 320.689L277.807 320.789L277.74 320.891L286.116 326.354ZM268.232 281.644L269.336 291.583L269.874 291.523L270.401 291.406L268.232 281.644ZM257.712 283.222L255.923 273.383L255.743 273.416L255.563 273.456L257.712 283.222ZM231.412 289.008L233.496 298.788L233.529 298.782L233.561 298.774L231.412 289.008ZM174.604 301.106L176.485 310.928L176.585 310.908L176.685 310.887L174.604 301.106ZM95.1781 299.002L89.9786 307.544L90.1938 307.675L90.4152 307.795L95.1781 299.002ZM86.2361 255.344L76.6658 252.444L76.6427 252.52L76.6208 252.597L86.2361 255.344ZM142.518 181.704L136.053 174.075L136.046 174.081L136.039 174.087L142.518 181.704ZM211.95 134.89L216.662 143.71L216.709 143.685L216.755 143.66L211.95 134.89ZM289.272 101.752L292.24 111.301L292.28 111.289L292.32 111.276L289.272 101.752ZM404.466 100.7L398.422 108.667L398.487 108.716L398.552 108.764L404.466 100.7ZM407.096 171.71L415.288 177.445L415.438 177.231L415.576 177.01L407.096 171.71ZM398.68 175.392L389.736 179.864L390.014 180.421L390.36 180.939L398.68 175.392ZM397.628 169.606L388.141 166.444L387.628 167.983V169.606H397.628ZM398.68 165.924L389.193 162.762L389.072 163.126L388.979 163.499L398.68 165.924ZM390.264 114.902L384.32 122.944L384.401 123.004L384.484 123.062L390.264 114.902ZM355.022 108.064L354.117 98.1051L354.053 98.1109L353.989 98.1175L355.022 108.064ZM262.446 133.838L258.62 124.599L258.605 124.605L258.59 124.611L262.446 133.838ZM195.644 168.554L190.294 160.106L190.261 160.126L190.229 160.147L195.644 168.554ZM141.992 211.16L149.063 218.231L149.063 218.231L141.992 211.16ZM111.484 255.87L120.428 260.342L120.669 259.861L120.856 259.357L111.484 255.87ZM194.592 282.696L192.879 272.844L192.86 272.847L192.842 272.85L194.592 282.696ZM250.348 272.176L252.309 281.982L252.309 281.982L250.348 272.176ZM268.758 268.494L267.114 258.63L266.955 258.657L266.797 258.688L268.758 268.494ZM313.994 273.754L308.347 282.007L308.347 282.007L313.994 273.754ZM314.52 318.99L322.982 324.318L323 324.291L323.016 324.264L314.52 318.99ZM293.48 346.342L300.7 353.261L300.77 353.188L300.839 353.113L293.48 346.342ZM266.654 371.064L272.934 378.846L272.968 378.819L273.001 378.791L266.654 371.064ZM202.482 409.462L198.646 400.227L198.646 400.227L202.482 409.462ZM137.784 413.664C130.305 413.664 126.329 411.998 124.255 410.244L111.337 425.512C118.381 431.472 127.729 433.664 137.784 433.664V413.664ZM124.553 410.506C122.762 408.864 121.484 406.471 121.484 402.098H101.484C101.484 411.051 104.414 419.177 111.039 425.25L124.553 410.506ZM121.484 402.098C121.484 397.833 122.792 392.594 126.128 386.224L108.412 376.944C104.034 385.302 101.484 393.739 101.484 402.098H121.484ZM126.128 386.224C129.365 380.044 134.017 374.126 140.266 368.503L126.886 353.637C119.108 360.638 112.889 368.396 108.412 376.944L126.128 386.224ZM139.978 368.752C140.758 368.102 141.298 367.731 141.614 367.541C141.765 367.451 141.818 367.43 141.78 367.447C141.744 367.462 141.567 367.539 141.261 367.615L136.411 348.213C132.756 349.126 129.58 351.383 127.174 353.388L139.978 368.752ZM138.836 367.914C138.235 367.914 137.439 367.81 136.569 367.462C135.687 367.109 134.953 366.595 134.395 366.037L148.537 351.895C145.838 349.196 142.362 347.914 138.836 347.914V367.914ZM134.395 366.037C132.832 364.474 132.322 362.832 132.159 362.18C132.063 361.797 132.025 361.505 132.009 361.342C131.992 361.174 131.992 361.078 131.992 361.07H151.992C151.992 360.061 151.915 358.743 151.562 357.33C151.224 355.976 150.451 353.809 148.537 351.895L134.395 366.037ZM131.992 361.07C131.992 360.127 132.294 359.755 132.093 360.112C131.886 360.481 131.349 361.253 130.187 362.415L144.329 376.557C147.966 372.92 151.992 367.651 151.992 361.07H131.992ZM130.064 362.54C120.018 372.945 112.53 384.042 112.53 395.26H132.53C132.53 392.452 134.861 386.365 144.452 376.432L130.064 362.54ZM112.53 395.26C112.53 402.571 115.995 408.618 121.1 413.213L134.48 398.347C132.572 396.63 132.53 395.664 132.53 395.26H112.53ZM121.1 413.213C126.568 418.134 133.272 420.526 140.655 419.959L139.121 400.017C137.387 400.151 136.026 399.738 134.48 398.347L121.1 413.213ZM140.288 419.98C159.023 419.231 178.139 415.114 197.597 407.772L190.535 389.06C172.822 395.744 155.82 399.343 139.488 399.996L140.288 419.98ZM197.597 407.772C217.105 400.41 235.311 390.291 252.195 377.444L240.085 361.528C224.708 373.228 208.198 382.395 190.535 389.06L197.597 407.772ZM252.303 377.361C269.244 364.103 283.335 348.925 294.492 331.817L277.74 320.891C267.857 336.045 255.298 349.621 239.977 361.611L252.303 377.361ZM294.356 332.019C302.571 320.071 307.688 308.238 307.688 296.898H287.688C287.688 302.39 285.091 310.194 277.876 320.689L294.356 332.019ZM307.688 296.898C307.688 289.143 305.056 281.804 298.554 276.764C292.535 272.1 284.676 270.592 276.648 270.592V290.592C282.647 290.592 285.308 291.802 286.302 292.573C286.813 292.968 287.688 293.782 287.688 296.898H307.688ZM276.648 270.592C273.276 270.592 269.721 271.069 266.063 271.882L270.401 291.406C273.055 290.816 275.111 290.592 276.648 290.592V270.592ZM267.128 271.705C263.697 272.086 259.957 272.65 255.923 273.383L259.501 293.061C263.182 292.391 266.455 291.903 269.336 291.583L267.128 271.705ZM255.563 273.456L229.263 279.242L233.561 298.774L259.861 292.988L255.563 273.456ZM229.328 279.228C207.938 283.786 189.003 287.819 172.523 291.325L176.685 310.887C193.168 307.38 212.105 303.347 233.496 298.788L229.328 279.228ZM172.723 291.284C156.692 294.354 142.611 295.84 130.42 295.84V315.84C144.178 315.84 159.553 314.17 176.485 310.928L172.723 291.284ZM130.42 295.84C116.14 295.84 106.287 293.647 99.9409 290.209L90.4152 307.795C100.901 313.475 114.543 315.84 130.42 315.84V295.84ZM100.378 290.46C95.9987 287.795 93.0801 283.276 93.0801 274.28H73.0801C73.0801 288.428 78.2268 300.391 89.9786 307.544L100.378 290.46ZM93.0801 274.28C93.0801 270.267 93.8975 264.93 95.8513 258.091L76.6208 252.597C74.3666 260.486 73.0801 267.773 73.0801 274.28H93.0801ZM95.8063 258.244C102.007 237.781 119.09 214.76 148.997 189.321L136.039 174.087C104.931 200.547 84.4915 226.619 76.6658 252.444L95.8063 258.244ZM148.983 189.333C169.096 172.288 191.645 157.076 216.662 143.71L207.238 126.07C181.058 140.056 157.319 156.053 136.053 174.075L148.983 189.333ZM216.755 143.66C241.812 129.93 266.973 119.155 292.24 111.301L286.304 92.2026C259.673 100.48 233.285 111.797 207.145 126.12L216.755 143.66ZM292.32 111.276C317.836 103.111 341.345 99.128 362.912 99.128V79.128C338.893 79.128 313.308 83.5608 286.224 92.2277L292.32 111.276ZM362.912 99.128C379.065 99.128 390.538 102.685 398.422 108.667L410.51 92.7331C398.056 83.2851 381.826 79.128 362.912 79.128V99.128ZM398.552 108.764C406.439 114.548 410.246 122.039 410.246 132.26H430.246C430.246 115.83 423.533 102.282 410.38 92.6359L398.552 108.764ZM410.246 132.26C410.246 142.114 406.725 153.437 398.616 166.41L415.576 177.01C425.001 161.93 430.246 146.953 430.246 132.26H410.246ZM398.904 165.975C398.445 166.631 398.064 167.116 397.764 167.462C397.458 167.815 397.293 167.958 397.275 167.973C397.248 167.996 397.497 167.779 398.027 167.538C398.579 167.287 399.529 166.97 400.784 166.97V186.97C405 186.97 408.187 184.914 410.079 183.337C412.081 181.669 413.804 179.565 415.288 177.445L398.904 165.975ZM400.784 166.97C403.088 166.97 404.791 167.87 405.732 168.576C406.594 169.222 406.976 169.808 407.001 169.845L390.36 180.939C391.464 182.595 394.774 186.97 400.784 186.97V166.97ZM407.624 170.92C407.573 170.816 407.577 170.799 407.592 170.863C407.609 170.93 407.628 171.043 407.628 171.184H387.628C387.628 174.314 388.423 177.239 389.736 179.864L407.624 170.92ZM407.628 171.184C407.628 171.183 407.628 171.183 407.628 171.182C407.628 171.181 407.628 171.181 407.628 171.18C407.628 171.179 407.628 171.179 407.628 171.178C407.628 171.177 407.628 171.176 407.628 171.176C407.628 171.175 407.628 171.174 407.628 171.174C407.628 171.173 407.628 171.172 407.628 171.172C407.628 171.171 407.628 171.17 407.628 171.17C407.628 171.169 407.628 171.168 407.628 171.167C407.628 171.167 407.628 171.166 407.628 171.165C407.628 171.165 407.628 171.164 407.628 171.163C407.628 171.163 407.628 171.162 407.628 171.161C407.628 171.16 407.628 171.16 407.628 171.159C407.628 171.158 407.628 171.158 407.628 171.157C407.628 171.156 407.628 171.156 407.628 171.155C407.628 171.154 407.628 171.153 407.628 171.153C407.628 171.152 407.628 171.151 407.628 171.151C407.628 171.15 407.628 171.149 407.628 171.148C407.628 171.148 407.628 171.147 407.628 171.146C407.628 171.146 407.628 171.145 407.628 171.144C407.628 171.144 407.628 171.143 407.628 171.142C407.628 171.141 407.628 171.141 407.628 171.14C407.628 171.139 407.628 171.139 407.628 171.138C407.628 171.137 407.628 171.136 407.628 171.136C407.628 171.135 407.628 171.134 407.628 171.134C407.628 171.133 407.628 171.132 407.628 171.131C407.628 171.131 407.628 171.13 407.628 171.129C407.628 171.128 407.628 171.128 407.628 171.127C407.628 171.126 407.628 171.126 407.628 171.125C407.628 171.124 407.628 171.123 407.628 171.123C407.628 171.122 407.628 171.121 407.628 171.121C407.628 171.12 407.628 171.119 407.628 171.118C407.628 171.118 407.628 171.117 407.628 171.116C407.628 171.115 407.628 171.115 407.628 171.114C407.628 171.113 407.628 171.113 407.628 171.112C407.628 171.111 407.628 171.11 407.628 171.11C407.628 171.109 407.628 171.108 407.628 171.107C407.628 171.107 407.628 171.106 407.628 171.105C407.628 171.104 407.628 171.104 407.628 171.103C407.628 171.102 407.628 171.102 407.628 171.101C407.628 171.1 407.628 171.099 407.628 171.099C407.628 171.098 407.628 171.097 407.628 171.096C407.628 171.096 407.628 171.095 407.628 171.094C407.628 171.093 407.628 171.093 407.628 171.092C407.628 171.091 407.628 171.09 407.628 171.09C407.628 171.089 407.628 171.088 407.628 171.087C407.628 171.087 407.628 171.086 407.628 171.085C407.628 171.084 407.628 171.084 407.628 171.083C407.628 171.082 407.628 171.081 407.628 171.081C407.628 171.08 407.628 171.079 407.628 171.078C407.628 171.078 407.628 171.077 407.628 171.076C407.628 171.075 407.628 171.075 407.628 171.074C407.628 171.073 407.628 171.072 407.628 171.072C407.628 171.071 407.628 171.07 407.628 171.069C407.628 171.069 407.628 171.068 407.628 171.067C407.628 171.066 407.628 171.066 407.628 171.065C407.628 171.064 407.628 171.063 407.628 171.063C407.628 171.062 407.628 171.061 407.628 171.06C407.628 171.06 407.628 171.059 407.628 171.058C407.628 171.057 407.628 171.057 407.628 171.056C407.628 171.055 407.628 171.054 407.628 171.053C407.628 171.053 407.628 171.052 407.628 171.051C407.628 171.05 407.628 171.05 407.628 171.049C407.628 171.048 407.628 171.047 407.628 171.047C407.628 171.046 407.628 171.045 407.628 171.044C407.628 171.044 407.628 171.043 407.628 171.042C407.628 171.041 407.628 171.04 407.628 171.04C407.628 171.039 407.628 171.038 407.628 171.037C407.628 171.037 407.628 171.036 407.628 171.035C407.628 171.034 407.628 171.033 407.628 171.033C407.628 171.032 407.628 171.031 407.628 171.03C407.628 171.03 407.628 171.029 407.628 171.028C407.628 171.027 407.628 171.026 407.628 171.026C407.628 171.025 407.628 171.024 407.628 171.023C407.628 171.023 407.628 171.022 407.628 171.021C407.628 171.02 407.628 171.019 407.628 171.019C407.628 171.018 407.628 171.017 407.628 171.016C407.628 171.015 407.628 171.015 407.628 171.014C407.628 171.013 407.628 171.012 407.628 171.012C407.628 171.011 407.628 171.01 407.628 171.009C407.628 171.008 407.628 171.008 407.628 171.007C407.628 171.006 407.628 171.005 407.628 171.004C407.628 171.004 407.628 171.003 407.628 171.002C407.628 171.001 407.628 171 407.628 171C407.628 170.999 407.628 170.998 407.628 170.997C407.628 170.996 407.628 170.996 407.628 170.995C407.628 170.994 407.628 170.993 407.628 170.992C407.628 170.992 407.628 170.991 407.628 170.99C407.628 170.989 407.628 170.988 407.628 170.988C407.628 170.987 407.628 170.986 407.628 170.985C407.628 170.984 407.628 170.984 407.628 170.983C407.628 170.982 407.628 170.981 407.628 170.98C407.628 170.98 407.628 170.979 407.628 170.978C407.628 170.977 407.628 170.976 407.628 170.976C407.628 170.975 407.628 170.974 407.628 170.973C407.628 170.972 407.628 170.972 407.628 170.971C407.628 170.97 407.628 170.969 407.628 170.968C407.628 170.967 407.628 170.967 407.628 170.966C407.628 170.965 407.628 170.964 407.628 170.963C407.628 170.963 407.628 170.962 407.628 170.961C407.628 170.96 407.628 170.959 407.628 170.958C407.628 170.958 407.628 170.957 407.628 170.956C407.628 170.955 407.628 170.954 407.628 170.954C407.628 170.953 407.628 170.952 407.628 170.951C407.628 170.95 407.628 170.949 407.628 170.949C407.628 170.948 407.628 170.947 407.628 170.946C407.628 170.945 407.628 170.944 407.628 170.944C407.628 170.943 407.628 170.942 407.628 170.941C407.628 170.94 407.628 170.94 407.628 170.939C407.628 170.938 407.628 170.937 407.628 170.936C407.628 170.935 407.628 170.935 407.628 170.934C407.628 170.933 407.628 170.932 407.628 170.931C407.628 170.93 407.628 170.93 407.628 170.929C407.628 170.928 407.628 170.927 407.628 170.926C407.628 170.925 407.628 170.925 407.628 170.924C407.628 170.923 407.628 170.922 407.628 170.921C407.628 170.92 407.628 170.919 407.628 170.919C407.628 170.918 407.628 170.917 407.628 170.916C407.628 170.915 407.628 170.914 407.628 170.914C407.628 170.913 407.628 170.912 407.628 170.911C407.628 170.91 407.628 170.909 407.628 170.909C407.628 170.908 407.628 170.907 407.628 170.906C407.628 170.905 407.628 170.904 407.628 170.903C407.628 170.903 407.628 170.902 407.628 170.901C407.628 170.9 407.628 170.899 407.628 170.898C407.628 170.898 407.628 170.897 407.628 170.896C407.628 170.895 407.628 170.894 407.628 170.893C407.628 170.892 407.628 170.892 407.628 170.891C407.628 170.89 407.628 170.889 407.628 170.888C407.628 170.887 407.628 170.886 407.628 170.886C407.628 170.885 407.628 170.884 407.628 170.883C407.628 170.882 407.628 170.881 407.628 170.88C407.628 170.88 407.628 170.879 407.628 170.878C407.628 170.877 407.628 170.876 407.628 170.875C407.628 170.874 407.628 170.873 407.628 170.873C407.628 170.872 407.628 170.871 407.628 170.87C407.628 170.869 407.628 170.868 407.628 170.867C407.628 170.867 407.628 170.866 407.628 170.865C407.628 170.864 407.628 170.863 407.628 170.862C407.628 170.861 407.628 170.86 407.628 170.86C407.628 170.859 407.628 170.858 407.628 170.857C407.628 170.856 407.628 170.855 407.628 170.854C407.628 170.854 407.628 170.853 407.628 170.852C407.628 170.851 407.628 170.85 407.628 170.849C407.628 170.848 407.628 170.847 407.628 170.847C407.628 170.846 407.628 170.845 407.628 170.844C407.628 170.843 407.628 170.842 407.628 170.841C407.628 170.84 407.628 170.839 407.628 170.839C407.628 170.838 407.628 170.837 407.628 170.836C407.628 170.835 407.628 170.834 407.628 170.833C407.628 170.832 407.628 170.832 407.628 170.831C407.628 170.83 407.628 170.829 407.628 170.828C407.628 170.827 407.628 170.826 407.628 170.825C407.628 170.824 407.628 170.824 407.628 170.823C407.628 170.822 407.628 170.821 407.628 170.82C407.628 170.819 407.628 170.818 407.628 170.817C407.628 170.816 407.628 170.816 407.628 170.815C407.628 170.814 407.628 170.813 407.628 170.812C407.628 170.811 407.628 170.81 407.628 170.809C407.628 170.808 407.628 170.807 407.628 170.807C407.628 170.806 407.628 170.805 407.628 170.804C407.628 170.803 407.628 170.802 407.628 170.801C407.628 170.8 407.628 170.799 407.628 170.798C407.628 170.798 407.628 170.797 407.628 170.796C407.628 170.795 407.628 170.794 407.628 170.793C407.628 170.792 407.628 170.791 407.628 170.79C407.628 170.789 407.628 170.789 407.628 170.788C407.628 170.787 407.628 170.786 407.628 170.785C407.628 170.784 407.628 170.783 407.628 170.782C407.628 170.781 407.628 170.78 407.628 170.779C407.628 170.779 407.628 170.778 407.628 170.777C407.628 170.776 407.628 170.775 407.628 170.774C407.628 170.773 407.628 170.772 407.628 170.771C407.628 170.77 407.628 170.769 407.628 170.768C407.628 170.768 407.628 170.767 407.628 170.766C407.628 170.765 407.628 170.764 407.628 170.763C407.628 170.762 407.628 170.761 407.628 170.76C407.628 170.759 407.628 170.758 407.628 170.757C407.628 170.757 407.628 170.756 407.628 170.755C407.628 170.754 407.628 170.753 407.628 170.752C407.628 170.751 407.628 170.75 407.628 170.749C407.628 170.748 407.628 170.747 407.628 170.746C407.628 170.745 407.628 170.745 407.628 170.744C407.628 170.743 407.628 170.742 407.628 170.741C407.628 170.74 407.628 170.739 407.628 170.738C407.628 170.737 407.628 170.736 407.628 170.735C407.628 170.734 407.628 170.733 407.628 170.732C407.628 170.731 407.628 170.731 407.628 170.73C407.628 170.729 407.628 170.728 407.628 170.727C407.628 170.726 407.628 170.725 407.628 170.724C407.628 170.723 407.628 170.722 407.628 170.721C407.628 170.72 407.628 170.719 407.628 170.718C407.628 170.717 407.628 170.716 407.628 170.716C407.628 170.715 407.628 170.714 407.628 170.713C407.628 170.712 407.628 170.711 407.628 170.71C407.628 170.709 407.628 170.708 407.628 170.707C407.628 170.706 407.628 170.705 407.628 170.704C407.628 170.703 407.628 170.702 407.628 170.701C407.628 170.7 407.628 170.699 407.628 170.698C407.628 170.698 407.628 170.697 407.628 170.696C407.628 170.695 407.628 170.694 407.628 170.693C407.628 170.692 407.628 170.691 407.628 170.69C407.628 170.689 407.628 170.688 407.628 170.687C407.628 170.686 407.628 170.685 407.628 170.684C407.628 170.683 407.628 170.682 407.628 170.681C407.628 170.68 407.628 170.679 407.628 170.678C407.628 170.677 407.628 170.677 407.628 170.676C407.628 170.675 407.628 170.674 407.628 170.673C407.628 170.672 407.628 170.671 407.628 170.67C407.628 170.669 407.628 170.668 407.628 170.667C407.628 170.666 407.628 170.665 407.628 170.664C407.628 170.663 407.628 170.662 407.628 170.661C407.628 170.66 407.628 170.659 407.628 170.658C407.628 170.657 407.628 170.656 407.628 170.655C407.628 170.654 407.628 170.653 407.628 170.652C407.628 170.651 407.628 170.65 407.628 170.649C407.628 170.649 407.628 170.648 407.628 170.647C407.628 170.646 407.628 170.645 407.628 170.644C407.628 170.643 407.628 170.642 407.628 170.641C407.628 170.64 407.628 170.639 407.628 170.638C407.628 170.637 407.628 170.636 407.628 170.635C407.628 170.634 407.628 170.633 407.628 170.632C407.628 170.631 407.628 170.63 407.628 170.629C407.628 170.628 407.628 170.627 407.628 170.626C407.628 170.625 407.628 170.624 407.628 170.623C407.628 170.622 407.628 170.621 407.628 170.62C407.628 170.619 407.628 170.618 407.628 170.617C407.628 170.616 407.628 170.615 407.628 170.614C407.628 170.613 407.628 170.612 407.628 170.611C407.628 170.61 407.628 170.609 407.628 170.608C407.628 170.607 407.628 170.606 407.628 170.605C407.628 170.604 407.628 170.603 407.628 170.602C407.628 170.601 407.628 170.6 407.628 170.599C407.628 170.598 407.628 170.597 407.628 170.596C407.628 170.595 407.628 170.594 407.628 170.593C407.628 170.592 407.628 170.591 407.628 170.59C407.628 170.589 407.628 170.588 407.628 170.587C407.628 170.586 407.628 170.585 407.628 170.584C407.628 170.583 407.628 170.582 407.628 170.581C407.628 170.58 407.628 170.579 407.628 170.578C407.628 170.577 407.628 170.576 407.628 170.575C407.628 170.574 407.628 170.573 407.628 170.572C407.628 170.571 407.628 170.57 407.628 170.569C407.628 170.568 407.628 170.567 407.628 170.566C407.628 170.565 407.628 170.564 407.628 170.563C407.628 170.562 407.628 170.561 407.628 170.56C407.628 170.559 407.628 170.558 407.628 170.557C407.628 170.556 407.628 170.555 407.628 170.554C407.628 170.553 407.628 170.552 407.628 170.551C407.628 170.55 407.628 170.549 407.628 170.548C407.628 170.547 407.628 170.546 407.628 170.545C407.628 170.544 407.628 170.543 407.628 170.542C407.628 170.541 407.628 170.54 407.628 170.539C407.628 170.538 407.628 170.537 407.628 170.536C407.628 170.535 407.628 170.534 407.628 170.533C407.628 170.532 407.628 170.531 407.628 170.53C407.628 170.529 407.628 170.528 407.628 170.526C407.628 170.525 407.628 170.524 407.628 170.523C407.628 170.522 407.628 170.521 407.628 170.52C407.628 170.519 407.628 170.518 407.628 170.517C407.628 170.516 407.628 170.515 407.628 170.514C407.628 170.513 407.628 170.512 407.628 170.511C407.628 170.51 407.628 170.509 407.628 170.508C407.628 170.507 407.628 170.506 407.628 170.505C407.628 170.504 407.628 170.503 407.628 170.502C407.628 170.501 407.628 170.5 407.628 170.499C407.628 170.498 407.628 170.497 407.628 170.495C407.628 170.494 407.628 170.493 407.628 170.492C407.628 170.491 407.628 170.49 407.628 170.489C407.628 170.488 407.628 170.487 407.628 170.486C407.628 170.485 407.628 170.484 407.628 170.483C407.628 170.482 407.628 170.481 407.628 170.48C407.628 170.479 407.628 170.478 407.628 170.477C407.628 170.476 407.628 170.475 407.628 170.474C407.628 170.472 407.628 170.471 407.628 170.47C407.628 170.469 407.628 170.468 407.628 170.467C407.628 170.466 407.628 170.465 407.628 170.464C407.628 170.463 407.628 170.462 407.628 170.461C407.628 170.46 407.628 170.459 407.628 170.458C407.628 170.457 407.628 170.456 407.628 170.455C407.628 170.453 407.628 170.452 407.628 170.451C407.628 170.45 407.628 170.449 407.628 170.448C407.628 170.447 407.628 170.446 407.628 170.445C407.628 170.444 407.628 170.443 407.628 170.442C407.628 170.441 407.628 170.44 407.628 170.439C407.628 170.438 407.628 170.436 407.628 170.435C407.628 170.434 407.628 170.433 407.628 170.432C407.628 170.431 407.628 170.43 407.628 170.429C407.628 170.428 407.628 170.427 407.628 170.426C407.628 170.425 407.628 170.424 407.628 170.423C407.628 170.422 407.628 170.42 407.628 170.419C407.628 170.418 407.628 170.417 407.628 170.416C407.628 170.415 407.628 170.414 407.628 170.413C407.628 170.412 407.628 170.411 407.628 170.41C407.628 170.409 407.628 170.408 407.628 170.406C407.628 170.405 407.628 170.404 407.628 170.403C407.628 170.402 407.628 170.401 407.628 170.4C407.628 170.399 407.628 170.398 407.628 170.397C407.628 170.396 407.628 170.395 407.628 170.394C407.628 170.392 407.628 170.391 407.628 170.39C407.628 170.389 407.628 170.388 407.628 170.387C407.628 170.386 407.628 170.385 407.628 170.384C407.628 170.383 407.628 170.382 407.628 170.38C407.628 170.379 407.628 170.378 407.628 170.377C407.628 170.376 407.628 170.375 407.628 170.374C407.628 170.373 407.628 170.372 407.628 170.371C407.628 170.37 407.628 170.368 407.628 170.367C407.628 170.366 407.628 170.365 407.628 170.364C407.628 170.363 407.628 170.362 407.628 170.361C407.628 170.36 407.628 170.359 407.628 170.358C407.628 170.356 407.628 170.355 407.628 170.354C407.628 170.353 407.628 170.352 407.628 170.351C407.628 170.35 407.628 170.349 407.628 170.348C407.628 170.346 407.628 170.345 407.628 170.344C407.628 170.343 407.628 170.342 407.628 170.341C407.628 170.34 407.628 170.339 407.628 170.338C407.628 170.337 407.628 170.335 407.628 170.334C407.628 170.333 407.628 170.332 407.628 170.331C407.628 170.33 407.628 170.329 407.628 170.328C407.628 170.327 407.628 170.325 407.628 170.324C407.628 170.323 407.628 170.322 407.628 170.321C407.628 170.32 407.628 170.319 407.628 170.318C407.628 170.317 407.628 170.315 407.628 170.314C407.628 170.313 407.628 170.312 407.628 170.311C407.628 170.31 407.628 170.309 407.628 170.308C407.628 170.307 407.628 170.305 407.628 170.304C407.628 170.303 407.628 170.302 407.628 170.301C407.628 170.3 407.628 170.299 407.628 170.298C407.628 170.296 407.628 170.295 407.628 170.294C407.628 170.293 407.628 170.292 407.628 170.291C407.628 170.29 407.628 170.289 407.628 170.287C407.628 170.286 407.628 170.285 407.628 170.284C407.628 170.283 407.628 170.282 407.628 170.281C407.628 170.28 407.628 170.278 407.628 170.277C407.628 170.276 407.628 170.275 407.628 170.274C407.628 170.273 407.628 170.272 407.628 170.27C407.628 170.269 407.628 170.268 407.628 170.267C407.628 170.266 407.628 170.265 407.628 170.264C407.628 170.263 407.628 170.261 407.628 170.26C407.628 170.259 407.628 170.258 407.628 170.257C407.628 170.256 407.628 170.255 407.628 170.253C407.628 170.252 407.628 170.251 407.628 170.25C407.628 170.249 407.628 170.248 407.628 170.247C407.628 170.245 407.628 170.244 407.628 170.243C407.628 170.242 407.628 170.241 407.628 170.24C407.628 170.239 407.628 170.237 407.628 170.236C407.628 170.235 407.628 170.234 407.628 170.233C407.628 170.232 407.628 170.231 407.628 170.229C407.628 170.228 407.628 170.227 407.628 170.226C407.628 170.225 407.628 170.224 407.628 170.223C407.628 170.221 407.628 170.22 407.628 170.219C407.628 170.218 407.628 170.217 407.628 170.216C407.628 170.214 407.628 170.213 407.628 170.212C407.628 170.211 407.628 170.21 407.628 170.209C407.628 170.207 407.628 170.206 407.628 170.205C407.628 170.204 407.628 170.203 407.628 170.202C407.628 170.201 407.628 170.199 407.628 170.198C407.628 170.197 407.628 170.196 407.628 170.195C407.628 170.194 407.628 170.192 407.628 170.191C407.628 170.19 407.628 170.189 407.628 170.188C407.628 170.187 407.628 170.185 407.628 170.184C407.628 170.183 407.628 170.182 407.628 170.181C407.628 170.18 407.628 170.178 407.628 170.177C407.628 170.176 407.628 170.175 407.628 170.174C407.628 170.173 407.628 170.171 407.628 170.17C407.628 170.169 407.628 170.168 407.628 170.167C407.628 170.166 407.628 170.164 407.628 170.163C407.628 170.162 407.628 170.161 407.628 170.16C407.628 170.158 407.628 170.157 407.628 170.156C407.628 170.155 407.628 170.154 407.628 170.153C407.628 170.151 407.628 170.15 407.628 170.149C407.628 170.148 407.628 170.147 407.628 170.146C407.628 170.144 407.628 170.143 407.628 170.142C407.628 170.141 407.628 170.14 407.628 170.138C407.628 170.137 407.628 170.136 407.628 170.135C407.628 170.134 407.628 170.132 407.628 170.131C407.628 170.13 407.628 170.129 407.628 170.128C407.628 170.127 407.628 170.125 407.628 170.124C407.628 170.123 407.628 170.122 407.628 170.121C407.628 170.119 407.628 170.118 407.628 170.117C407.628 170.116 407.628 170.115 407.628 170.113C407.628 170.112 407.628 170.111 407.628 170.11C407.628 170.109 407.628 170.107 407.628 170.106C407.628 170.105 407.628 170.104 407.628 170.103C407.628 170.102 407.628 170.1 407.628 170.099C407.628 170.098 407.628 170.097 407.628 170.096C407.628 170.094 407.628 170.093 407.628 170.092C407.628 170.091 407.628 170.09 407.628 170.088C407.628 170.087 407.628 170.086 407.628 170.085C407.628 170.083 407.628 170.082 407.628 170.081C407.628 170.08 407.628 170.079 407.628 170.077C407.628 170.076 407.628 170.075 407.628 170.074C407.628 170.073 407.628 170.071 407.628 170.07C407.628 170.069 407.628 170.068 407.628 170.067C407.628 170.065 407.628 170.064 407.628 170.063C407.628 170.062 407.628 170.061 407.628 170.059C407.628 170.058 407.628 170.057 407.628 170.056C407.628 170.054 407.628 170.053 407.628 170.052C407.628 170.051 407.628 170.05 407.628 170.048C407.628 170.047 407.628 170.046 407.628 170.045C407.628 170.044 407.628 170.042 407.628 170.041C407.628 170.04 407.628 170.039 407.628 170.037C407.628 170.036 407.628 170.035 407.628 170.034C407.628 170.033 407.628 170.031 407.628 170.03C407.628 170.029 407.628 170.028 407.628 170.026C407.628 170.025 407.628 170.024 407.628 170.023C407.628 170.021 407.628 170.02 407.628 170.019C407.628 170.018 407.628 170.017 407.628 170.015C407.628 170.014 407.628 170.013 407.628 170.012C407.628 170.01 407.628 170.009 407.628 170.008C407.628 170.007 407.628 170.005 407.628 170.004C407.628 170.003 407.628 170.002 407.628 170.001C407.628 169.999 407.628 169.998 407.628 169.997C407.628 169.996 407.628 169.994 407.628 169.993C407.628 169.992 407.628 169.991 407.628 169.989C407.628 169.988 407.628 169.987 407.628 169.986C407.628 169.984 407.628 169.983 407.628 169.982C407.628 169.981 407.628 169.98 407.628 169.978C407.628 169.977 407.628 169.976 407.628 169.975C407.628 169.973 407.628 169.972 407.628 169.971C407.628 169.97 407.628 169.968 407.628 169.967C407.628 169.966 407.628 169.965 407.628 169.963C407.628 169.962 407.628 169.961 407.628 169.96C407.628 169.958 407.628 169.957 407.628 169.956C407.628 169.955 407.628 169.953 407.628 169.952C407.628 169.951 407.628 169.95 407.628 169.948C407.628 169.947 407.628 169.946 407.628 169.945C407.628 169.943 407.628 169.942 407.628 169.941C407.628 169.94 407.628 169.938 407.628 169.937C407.628 169.936 407.628 169.934 407.628 169.933C407.628 169.932 407.628 169.931 407.628 169.929C407.628 169.928 407.628 169.927 407.628 169.926C407.628 169.924 407.628 169.923 407.628 169.922C407.628 169.921 407.628 169.919 407.628 169.918C407.628 169.917 407.628 169.916 407.628 169.914C407.628 169.913 407.628 169.912 407.628 169.911C407.628 169.909 407.628 169.908 407.628 169.907C407.628 169.905 407.628 169.904 407.628 169.903C407.628 169.902 407.628 169.9 407.628 169.899C407.628 169.898 407.628 169.897 407.628 169.895C407.628 169.894 407.628 169.893 407.628 169.891C407.628 169.89 407.628 169.889 407.628 169.888C407.628 169.886 407.628 169.885 407.628 169.884C407.628 169.883 407.628 169.881 407.628 169.88C407.628 169.879 407.628 169.877 407.628 169.876C407.628 169.875 407.628 169.874 407.628 169.872C407.628 169.871 407.628 169.87 407.628 169.868C407.628 169.867 407.628 169.866 407.628 169.865C407.628 169.863 407.628 169.862 407.628 169.861C407.628 169.859 407.628 169.858 407.628 169.857C407.628 169.856 407.628 169.854 407.628 169.853C407.628 169.852 407.628 169.85 407.628 169.849C407.628 169.848 407.628 169.847 407.628 169.845C407.628 169.844 407.628 169.843 407.628 169.841C407.628 169.84 407.628 169.839 407.628 169.838C407.628 169.836 407.628 169.835 407.628 169.834C407.628 169.832 407.628 169.831 407.628 169.83C407.628 169.829 407.628 169.827 407.628 169.826C407.628 169.825 407.628 169.823 407.628 169.822C407.628 169.821 407.628 169.819 407.628 169.818C407.628 169.817 407.628 169.816 407.628 169.814C407.628 169.813 407.628 169.812 407.628 169.81C407.628 169.809 407.628 169.808 407.628 169.806C407.628 169.805 407.628 169.804 407.628 169.803C407.628 169.801 407.628 169.8 407.628 169.799C407.628 169.797 407.628 169.796 407.628 169.795C407.628 169.793 407.628 169.792 407.628 169.791C407.628 169.789 407.628 169.788 407.628 169.787C407.628 169.786 407.628 169.784 407.628 169.783C407.628 169.782 407.628 169.78 407.628 169.779C407.628 169.778 407.628 169.776 407.628 169.775C407.628 169.774 407.628 169.772 407.628 169.771C407.628 169.77 407.628 169.768 407.628 169.767C407.628 169.766 407.628 169.765 407.628 169.763C407.628 169.762 407.628 169.761 407.628 169.759C407.628 169.758 407.628 169.757 407.628 169.755C407.628 169.754 407.628 169.753 407.628 169.751C407.628 169.75 407.628 169.749 407.628 169.747C407.628 169.746 407.628 169.745 407.628 169.743C407.628 169.742 407.628 169.741 407.628 169.739C407.628 169.738 407.628 169.737 407.628 169.735C407.628 169.734 407.628 169.733 407.628 169.731C407.628 169.73 407.628 169.729 407.628 169.727C407.628 169.726 407.628 169.725 407.628 169.723C407.628 169.722 407.628 169.721 407.628 169.719C407.628 169.718 407.628 169.717 407.628 169.715C407.628 169.714 407.628 169.713 407.628 169.711C407.628 169.71 407.628 169.709 407.628 169.707C407.628 169.706 407.628 169.705 407.628 169.703C407.628 169.702 407.628 169.701 407.628 169.699C407.628 169.698 407.628 169.697 407.628 169.695C407.628 169.694 407.628 169.693 407.628 169.691C407.628 169.69 407.628 169.689 407.628 169.687C407.628 169.686 407.628 169.685 407.628 169.683C407.628 169.682 407.628 169.681 407.628 169.679C407.628 169.678 407.628 169.677 407.628 169.675C407.628 169.674 407.628 169.673 407.628 169.671C407.628 169.67 407.628 169.669 407.628 169.667C407.628 169.666 407.628 169.664 407.628 169.663C407.628 169.662 407.628 169.66 407.628 169.659C407.628 169.658 407.628 169.656 407.628 169.655C407.628 169.654 407.628 169.652 407.628 169.651C407.628 169.65 407.628 169.648 407.628 169.647C407.628 169.646 407.628 169.644 407.628 169.643C407.628 169.641 407.628 169.64 407.628 169.639C407.628 169.637 407.628 169.636 407.628 169.635C407.628 169.633 407.628 169.632 407.628 169.631C407.628 169.629 407.628 169.628 407.628 169.626C407.628 169.625 407.628 169.624 407.628 169.622C407.628 169.621 407.628 169.62 407.628 169.618C407.628 169.617 407.628 169.616 407.628 169.614C407.628 169.613 407.628 169.611 407.628 169.61C407.628 169.609 407.628 169.607 407.628 169.606H387.628C387.628 169.607 387.628 169.609 387.628 169.61C387.628 169.611 387.628 169.613 387.628 169.614C387.628 169.616 387.628 169.617 387.628 169.618C387.628 169.62 387.628 169.621 387.628 169.622C387.628 169.624 387.628 169.625 387.628 169.626C387.628 169.628 387.628 169.629 387.628 169.631C387.628 169.632 387.628 169.633 387.628 169.635C387.628 169.636 387.628 169.637 387.628 169.639C387.628 169.64 387.628 169.641 387.628 169.643C387.628 169.644 387.628 169.646 387.628 169.647C387.628 169.648 387.628 169.65 387.628 169.651C387.628 169.652 387.628 169.654 387.628 169.655C387.628 169.656 387.628 169.658 387.628 169.659C387.628 169.66 387.628 169.662 387.628 169.663C387.628 169.664 387.628 169.666 387.628 169.667C387.628 169.669 387.628 169.67 387.628 169.671C387.628 169.673 387.628 169.674 387.628 169.675C387.628 169.677 387.628 169.678 387.628 169.679C387.628 169.681 387.628 169.682 387.628 169.683C387.628 169.685 387.628 169.686 387.628 169.687C387.628 169.689 387.628 169.69 387.628 169.691C387.628 169.693 387.628 169.694 387.628 169.695C387.628 169.697 387.628 169.698 387.628 169.699C387.628 169.701 387.628 169.702 387.628 169.703C387.628 169.705 387.628 169.706 387.628 169.707C387.628 169.709 387.628 169.71 387.628 169.711C387.628 169.713 387.628 169.714 387.628 169.715C387.628 169.717 387.628 169.718 387.628 169.719C387.628 169.721 387.628 169.722 387.628 169.723C387.628 169.725 387.628 169.726 387.628 169.727C387.628 169.729 387.628 169.73 387.628 169.731C387.628 169.733 387.628 169.734 387.628 169.735C387.628 169.737 387.628 169.738 387.628 169.739C387.628 169.741 387.628 169.742 387.628 169.743C387.628 169.745 387.628 169.746 387.628 169.747C387.628 169.749 387.628 169.75 387.628 169.751C387.628 169.753 387.628 169.754 387.628 169.755C387.628 169.757 387.628 169.758 387.628 169.759C387.628 169.761 387.628 169.762 387.628 169.763C387.628 169.765 387.628 169.766 387.628 169.767C387.628 169.768 387.628 169.77 387.628 169.771C387.628 169.772 387.628 169.774 387.628 169.775C387.628 169.776 387.628 169.778 387.628 169.779C387.628 169.78 387.628 169.782 387.628 169.783C387.628 169.784 387.628 169.786 387.628 169.787C387.628 169.788 387.628 169.789 387.628 169.791C387.628 169.792 387.628 169.793 387.628 169.795C387.628 169.796 387.628 169.797 387.628 169.799C387.628 169.8 387.628 169.801 387.628 169.803C387.628 169.804 387.628 169.805 387.628 169.806C387.628 169.808 387.628 169.809 387.628 169.81C387.628 169.812 387.628 169.813 387.628 169.814C387.628 169.816 387.628 169.817 387.628 169.818C387.628 169.819 387.628 169.821 387.628 169.822C387.628 169.823 387.628 169.825 387.628 169.826C387.628 169.827 387.628 169.829 387.628 169.83C387.628 169.831 387.628 169.832 387.628 169.834C387.628 169.835 387.628 169.836 387.628 169.838C387.628 169.839 387.628 169.84 387.628 169.841C387.628 169.843 387.628 169.844 387.628 169.845C387.628 169.847 387.628 169.848 387.628 169.849C387.628 169.85 387.628 169.852 387.628 169.853C387.628 169.854 387.628 169.856 387.628 169.857C387.628 169.858 387.628 169.859 387.628 169.861C387.628 169.862 387.628 169.863 387.628 169.865C387.628 169.866 387.628 169.867 387.628 169.868C387.628 169.87 387.628 169.871 387.628 169.872C387.628 169.874 387.628 169.875 387.628 169.876C387.628 169.877 387.628 169.879 387.628 169.88C387.628 169.881 387.628 169.883 387.628 169.884C387.628 169.885 387.628 169.886 387.628 169.888C387.628 169.889 387.628 169.89 387.628 169.891C387.628 169.893 387.628 169.894 387.628 169.895C387.628 169.897 387.628 169.898 387.628 169.899C387.628 169.9 387.628 169.902 387.628 169.903C387.628 169.904 387.628 169.905 387.628 169.907C387.628 169.908 387.628 169.909 387.628 169.911C387.628 169.912 387.628 169.913 387.628 169.914C387.628 169.916 387.628 169.917 387.628 169.918C387.628 169.919 387.628 169.921 387.628 169.922C387.628 169.923 387.628 169.924 387.628 169.926C387.628 169.927 387.628 169.928 387.628 169.929C387.628 169.931 387.628 169.932 387.628 169.933C387.628 169.934 387.628 169.936 387.628 169.937C387.628 169.938 387.628 169.94 387.628 169.941C387.628 169.942 387.628 169.943 387.628 169.945C387.628 169.946 387.628 169.947 387.628 169.948C387.628 169.95 387.628 169.951 387.628 169.952C387.628 169.953 387.628 169.955 387.628 169.956C387.628 169.957 387.628 169.958 387.628 169.96C387.628 169.961 387.628 169.962 387.628 169.963C387.628 169.965 387.628 169.966 387.628 169.967C387.628 169.968 387.628 169.97 387.628 169.971C387.628 169.972 387.628 169.973 387.628 169.975C387.628 169.976 387.628 169.977 387.628 169.978C387.628 169.98 387.628 169.981 387.628 169.982C387.628 169.983 387.628 169.984 387.628 169.986C387.628 169.987 387.628 169.988 387.628 169.989C387.628 169.991 387.628 169.992 387.628 169.993C387.628 169.994 387.628 169.996 387.628 169.997C387.628 169.998 387.628 169.999 387.628 170.001C387.628 170.002 387.628 170.003 387.628 170.004C387.628 170.005 387.628 170.007 387.628 170.008C387.628 170.009 387.628 170.01 387.628 170.012C387.628 170.013 387.628 170.014 387.628 170.015C387.628 170.017 387.628 170.018 387.628 170.019C387.628 170.02 387.628 170.021 387.628 170.023C387.628 170.024 387.628 170.025 387.628 170.026C387.628 170.028 387.628 170.029 387.628 170.03C387.628 170.031 387.628 170.033 387.628 170.034C387.628 170.035 387.628 170.036 387.628 170.037C387.628 170.039 387.628 170.04 387.628 170.041C387.628 170.042 387.628 170.044 387.628 170.045C387.628 170.046 387.628 170.047 387.628 170.048C387.628 170.05 387.628 170.051 387.628 170.052C387.628 170.053 387.628 170.054 387.628 170.056C387.628 170.057 387.628 170.058 387.628 170.059C387.628 170.061 387.628 170.062 387.628 170.063C387.628 170.064 387.628 170.065 387.628 170.067C387.628 170.068 387.628 170.069 387.628 170.07C387.628 170.071 387.628 170.073 387.628 170.074C387.628 170.075 387.628 170.076 387.628 170.077C387.628 170.079 387.628 170.08 387.628 170.081C387.628 170.082 387.628 170.083 387.628 170.085C387.628 170.086 387.628 170.087 387.628 170.088C387.628 170.09 387.628 170.091 387.628 170.092C387.628 170.093 387.628 170.094 387.628 170.096C387.628 170.097 387.628 170.098 387.628 170.099C387.628 170.1 387.628 170.102 387.628 170.103C387.628 170.104 387.628 170.105 387.628 170.106C387.628 170.107 387.628 170.109 387.628 170.11C387.628 170.111 387.628 170.112 387.628 170.113C387.628 170.115 387.628 170.116 387.628 170.117C387.628 170.118 387.628 170.119 387.628 170.121C387.628 170.122 387.628 170.123 387.628 170.124C387.628 170.125 387.628 170.127 387.628 170.128C387.628 170.129 387.628 170.13 387.628 170.131C387.628 170.132 387.628 170.134 387.628 170.135C387.628 170.136 387.628 170.137 387.628 170.138C387.628 170.14 387.628 170.141 387.628 170.142C387.628 170.143 387.628 170.144 387.628 170.146C387.628 170.147 387.628 170.148 387.628 170.149C387.628 170.15 387.628 170.151 387.628 170.153C387.628 170.154 387.628 170.155 387.628 170.156C387.628 170.157 387.628 170.158 387.628 170.16C387.628 170.161 387.628 170.162 387.628 170.163C387.628 170.164 387.628 170.166 387.628 170.167C387.628 170.168 387.628 170.169 387.628 170.17C387.628 170.171 387.628 170.173 387.628 170.174C387.628 170.175 387.628 170.176 387.628 170.177C387.628 170.178 387.628 170.18 387.628 170.181C387.628 170.182 387.628 170.183 387.628 170.184C387.628 170.185 387.628 170.187 387.628 170.188C387.628 170.189 387.628 170.19 387.628 170.191C387.628 170.192 387.628 170.194 387.628 170.195C387.628 170.196 387.628 170.197 387.628 170.198C387.628 170.199 387.628 170.201 387.628 170.202C387.628 170.203 387.628 170.204 387.628 170.205C387.628 170.206 387.628 170.207 387.628 170.209C387.628 170.21 387.628 170.211 387.628 170.212C387.628 170.213 387.628 170.214 387.628 170.216C387.628 170.217 387.628 170.218 387.628 170.219C387.628 170.22 387.628 170.221 387.628 170.223C387.628 170.224 387.628 170.225 387.628 170.226C387.628 170.227 387.628 170.228 387.628 170.229C387.628 170.231 387.628 170.232 387.628 170.233C387.628 170.234 387.628 170.235 387.628 170.236C387.628 170.237 387.628 170.239 387.628 170.24C387.628 170.241 387.628 170.242 387.628 170.243C387.628 170.244 387.628 170.245 387.628 170.247C387.628 170.248 387.628 170.249 387.628 170.25C387.628 170.251 387.628 170.252 387.628 170.253C387.628 170.255 387.628 170.256 387.628 170.257C387.628 170.258 387.628 170.259 387.628 170.26C387.628 170.261 387.628 170.263 387.628 170.264C387.628 170.265 387.628 170.266 387.628 170.267C387.628 170.268 387.628 170.269 387.628 170.27C387.628 170.272 387.628 170.273 387.628 170.274C387.628 170.275 387.628 170.276 387.628 170.277C387.628 170.278 387.628 170.28 387.628 170.281C387.628 170.282 387.628 170.283 387.628 170.284C387.628 170.285 387.628 170.286 387.628 170.287C387.628 170.289 387.628 170.29 387.628 170.291C387.628 170.292 387.628 170.293 387.628 170.294C387.628 170.295 387.628 170.296 387.628 170.298C387.628 170.299 387.628 170.3 387.628 170.301C387.628 170.302 387.628 170.303 387.628 170.304C387.628 170.305 387.628 170.307 387.628 170.308C387.628 170.309 387.628 170.31 387.628 170.311C387.628 170.312 387.628 170.313 387.628 170.314C387.628 170.315 387.628 170.317 387.628 170.318C387.628 170.319 387.628 170.32 387.628 170.321C387.628 170.322 387.628 170.323 387.628 170.324C387.628 170.325 387.628 170.327 387.628 170.328C387.628 170.329 387.628 170.33 387.628 170.331C387.628 170.332 387.628 170.333 387.628 170.334C387.628 170.335 387.628 170.337 387.628 170.338C387.628 170.339 387.628 170.34 387.628 170.341C387.628 170.342 387.628 170.343 387.628 170.344C387.628 170.345 387.628 170.346 387.628 170.348C387.628 170.349 387.628 170.35 387.628 170.351C387.628 170.352 387.628 170.353 387.628 170.354C387.628 170.355 387.628 170.356 387.628 170.358C387.628 170.359 387.628 170.36 387.628 170.361C387.628 170.362 387.628 170.363 387.628 170.364C387.628 170.365 387.628 170.366 387.628 170.367C387.628 170.368 387.628 170.37 387.628 170.371C387.628 170.372 387.628 170.373 387.628 170.374C387.628 170.375 387.628 170.376 387.628 170.377C387.628 170.378 387.628 170.379 387.628 170.38C387.628 170.382 387.628 170.383 387.628 170.384C387.628 170.385 387.628 170.386 387.628 170.387C387.628 170.388 387.628 170.389 387.628 170.39C387.628 170.391 387.628 170.392 387.628 170.394C387.628 170.395 387.628 170.396 387.628 170.397C387.628 170.398 387.628 170.399 387.628 170.4C387.628 170.401 387.628 170.402 387.628 170.403C387.628 170.404 387.628 170.405 387.628 170.406C387.628 170.408 387.628 170.409 387.628 170.41C387.628 170.411 387.628 170.412 387.628 170.413C387.628 170.414 387.628 170.415 387.628 170.416C387.628 170.417 387.628 170.418 387.628 170.419C387.628 170.42 387.628 170.422 387.628 170.423C387.628 170.424 387.628 170.425 387.628 170.426C387.628 170.427 387.628 170.428 387.628 170.429C387.628 170.43 387.628 170.431 387.628 170.432C387.628 170.433 387.628 170.434 387.628 170.435C387.628 170.436 387.628 170.438 387.628 170.439C387.628 170.44 387.628 170.441 387.628 170.442C387.628 170.443 387.628 170.444 387.628 170.445C387.628 170.446 387.628 170.447 387.628 170.448C387.628 170.449 387.628 170.45 387.628 170.451C387.628 170.452 387.628 170.453 387.628 170.455C387.628 170.456 387.628 170.457 387.628 170.458C387.628 170.459 387.628 170.46 387.628 170.461C387.628 170.462 387.628 170.463 387.628 170.464C387.628 170.465 387.628 170.466 387.628 170.467C387.628 170.468 387.628 170.469 387.628 170.47C387.628 170.471 387.628 170.472 387.628 170.474C387.628 170.475 387.628 170.476 387.628 170.477C387.628 170.478 387.628 170.479 387.628 170.48C387.628 170.481 387.628 170.482 387.628 170.483C387.628 170.484 387.628 170.485 387.628 170.486C387.628 170.487 387.628 170.488 387.628 170.489C387.628 170.49 387.628 170.491 387.628 170.492C387.628 170.493 387.628 170.494 387.628 170.495C387.628 170.497 387.628 170.498 387.628 170.499C387.628 170.5 387.628 170.501 387.628 170.502C387.628 170.503 387.628 170.504 387.628 170.505C387.628 170.506 387.628 170.507 387.628 170.508C387.628 170.509 387.628 170.51 387.628 170.511C387.628 170.512 387.628 170.513 387.628 170.514C387.628 170.515 387.628 170.516 387.628 170.517C387.628 170.518 387.628 170.519 387.628 170.52C387.628 170.521 387.628 170.522 387.628 170.523C387.628 170.524 387.628 170.525 387.628 170.526C387.628 170.528 387.628 170.529 387.628 170.53C387.628 170.531 387.628 170.532 387.628 170.533C387.628 170.534 387.628 170.535 387.628 170.536C387.628 170.537 387.628 170.538 387.628 170.539C387.628 170.54 387.628 170.541 387.628 170.542C387.628 170.543 387.628 170.544 387.628 170.545C387.628 170.546 387.628 170.547 387.628 170.548C387.628 170.549 387.628 170.55 387.628 170.551C387.628 170.552 387.628 170.553 387.628 170.554C387.628 170.555 387.628 170.556 387.628 170.557C387.628 170.558 387.628 170.559 387.628 170.56C387.628 170.561 387.628 170.562 387.628 170.563C387.628 170.564 387.628 170.565 387.628 170.566C387.628 170.567 387.628 170.568 387.628 170.569C387.628 170.57 387.628 170.571 387.628 170.572C387.628 170.573 387.628 170.574 387.628 170.575C387.628 170.576 387.628 170.577 387.628 170.578C387.628 170.579 387.628 170.58 387.628 170.581C387.628 170.582 387.628 170.583 387.628 170.584C387.628 170.585 387.628 170.586 387.628 170.587C387.628 170.588 387.628 170.589 387.628 170.59C387.628 170.591 387.628 170.592 387.628 170.593C387.628 170.594 387.628 170.595 387.628 170.596C387.628 170.597 387.628 170.598 387.628 170.599C387.628 170.6 387.628 170.601 387.628 170.602C387.628 170.603 387.628 170.604 387.628 170.605C387.628 170.606 387.628 170.607 387.628 170.608C387.628 170.609 387.628 170.61 387.628 170.611C387.628 170.612 387.628 170.613 387.628 170.614C387.628 170.615 387.628 170.616 387.628 170.617C387.628 170.618 387.628 170.619 387.628 170.62C387.628 170.621 387.628 170.622 387.628 170.623C387.628 170.624 387.628 170.625 387.628 170.626C387.628 170.627 387.628 170.628 387.628 170.629C387.628 170.63 387.628 170.631 387.628 170.632C387.628 170.633 387.628 170.634 387.628 170.635C387.628 170.636 387.628 170.637 387.628 170.638C387.628 170.639 387.628 170.64 387.628 170.641C387.628 170.642 387.628 170.643 387.628 170.644C387.628 170.645 387.628 170.646 387.628 170.647C387.628 170.648 387.628 170.649 387.628 170.649C387.628 170.65 387.628 170.651 387.628 170.652C387.628 170.653 387.628 170.654 387.628 170.655C387.628 170.656 387.628 170.657 387.628 170.658C387.628 170.659 387.628 170.66 387.628 170.661C387.628 170.662 387.628 170.663 387.628 170.664C387.628 170.665 387.628 170.666 387.628 170.667C387.628 170.668 387.628 170.669 387.628 170.67C387.628 170.671 387.628 170.672 387.628 170.673C387.628 170.674 387.628 170.675 387.628 170.676C387.628 170.677 387.628 170.677 387.628 170.678C387.628 170.679 387.628 170.68 387.628 170.681C387.628 170.682 387.628 170.683 387.628 170.684C387.628 170.685 387.628 170.686 387.628 170.687C387.628 170.688 387.628 170.689 387.628 170.69C387.628 170.691 387.628 170.692 387.628 170.693C387.628 170.694 387.628 170.695 387.628 170.696C387.628 170.697 387.628 170.698 387.628 170.698C387.628 170.699 387.628 170.7 387.628 170.701C387.628 170.702 387.628 170.703 387.628 170.704C387.628 170.705 387.628 170.706 387.628 170.707C387.628 170.708 387.628 170.709 387.628 170.71C387.628 170.711 387.628 170.712 387.628 170.713C387.628 170.714 387.628 170.715 387.628 170.716C387.628 170.716 387.628 170.717 387.628 170.718C387.628 170.719 387.628 170.72 387.628 170.721C387.628 170.722 387.628 170.723 387.628 170.724C387.628 170.725 387.628 170.726 387.628 170.727C387.628 170.728 387.628 170.729 387.628 170.73C387.628 170.731 387.628 170.731 387.628 170.732C387.628 170.733 387.628 170.734 387.628 170.735C387.628 170.736 387.628 170.737 387.628 170.738C387.628 170.739 387.628 170.74 387.628 170.741C387.628 170.742 387.628 170.743 387.628 170.744C387.628 170.745 387.628 170.745 387.628 170.746C387.628 170.747 387.628 170.748 387.628 170.749C387.628 170.75 387.628 170.751 387.628 170.752C387.628 170.753 387.628 170.754 387.628 170.755C387.628 170.756 387.628 170.757 387.628 170.757C387.628 170.758 387.628 170.759 387.628 170.76C387.628 170.761 387.628 170.762 387.628 170.763C387.628 170.764 387.628 170.765 387.628 170.766C387.628 170.767 387.628 170.768 387.628 170.768C387.628 170.769 387.628 170.77 387.628 170.771C387.628 170.772 387.628 170.773 387.628 170.774C387.628 170.775 387.628 170.776 387.628 170.777C387.628 170.778 387.628 170.779 387.628 170.779C387.628 170.78 387.628 170.781 387.628 170.782C387.628 170.783 387.628 170.784 387.628 170.785C387.628 170.786 387.628 170.787 387.628 170.788C387.628 170.789 387.628 170.789 387.628 170.79C387.628 170.791 387.628 170.792 387.628 170.793C387.628 170.794 387.628 170.795 387.628 170.796C387.628 170.797 387.628 170.798 387.628 170.798C387.628 170.799 387.628 170.8 387.628 170.801C387.628 170.802 387.628 170.803 387.628 170.804C387.628 170.805 387.628 170.806 387.628 170.807C387.628 170.807 387.628 170.808 387.628 170.809C387.628 170.81 387.628 170.811 387.628 170.812C387.628 170.813 387.628 170.814 387.628 170.815C387.628 170.816 387.628 170.816 387.628 170.817C387.628 170.818 387.628 170.819 387.628 170.82C387.628 170.821 387.628 170.822 387.628 170.823C387.628 170.824 387.628 170.824 387.628 170.825C387.628 170.826 387.628 170.827 387.628 170.828C387.628 170.829 387.628 170.83 387.628 170.831C387.628 170.832 387.628 170.832 387.628 170.833C387.628 170.834 387.628 170.835 387.628 170.836C387.628 170.837 387.628 170.838 387.628 170.839C387.628 170.839 387.628 170.84 387.628 170.841C387.628 170.842 387.628 170.843 387.628 170.844C387.628 170.845 387.628 170.846 387.628 170.847C387.628 170.847 387.628 170.848 387.628 170.849C387.628 170.85 387.628 170.851 387.628 170.852C387.628 170.853 387.628 170.854 387.628 170.854C387.628 170.855 387.628 170.856 387.628 170.857C387.628 170.858 387.628 170.859 387.628 170.86C387.628 170.86 387.628 170.861 387.628 170.862C387.628 170.863 387.628 170.864 387.628 170.865C387.628 170.866 387.628 170.867 387.628 170.867C387.628 170.868 387.628 170.869 387.628 170.87C387.628 170.871 387.628 170.872 387.628 170.873C387.628 170.873 387.628 170.874 387.628 170.875C387.628 170.876 387.628 170.877 387.628 170.878C387.628 170.879 387.628 170.88 387.628 170.88C387.628 170.881 387.628 170.882 387.628 170.883C387.628 170.884 387.628 170.885 387.628 170.886C387.628 170.886 387.628 170.887 387.628 170.888C387.628 170.889 387.628 170.89 387.628 170.891C387.628 170.892 387.628 170.892 387.628 170.893C387.628 170.894 387.628 170.895 387.628 170.896C387.628 170.897 387.628 170.898 387.628 170.898C387.628 170.899 387.628 170.9 387.628 170.901C387.628 170.902 387.628 170.903 387.628 170.903C387.628 170.904 387.628 170.905 387.628 170.906C387.628 170.907 387.628 170.908 387.628 170.909C387.628 170.909 387.628 170.91 387.628 170.911C387.628 170.912 387.628 170.913 387.628 170.914C387.628 170.914 387.628 170.915 387.628 170.916C387.628 170.917 387.628 170.918 387.628 170.919C387.628 170.919 387.628 170.92 387.628 170.921C387.628 170.922 387.628 170.923 387.628 170.924C387.628 170.925 387.628 170.925 387.628 170.926C387.628 170.927 387.628 170.928 387.628 170.929C387.628 170.93 387.628 170.93 387.628 170.931C387.628 170.932 387.628 170.933 387.628 170.934C387.628 170.935 387.628 170.935 387.628 170.936C387.628 170.937 387.628 170.938 387.628 170.939C387.628 170.94 387.628 170.94 387.628 170.941C387.628 170.942 387.628 170.943 387.628 170.944C387.628 170.944 387.628 170.945 387.628 170.946C387.628 170.947 387.628 170.948 387.628 170.949C387.628 170.949 387.628 170.95 387.628 170.951C387.628 170.952 387.628 170.953 387.628 170.954C387.628 170.954 387.628 170.955 387.628 170.956C387.628 170.957 387.628 170.958 387.628 170.958C387.628 170.959 387.628 170.96 387.628 170.961C387.628 170.962 387.628 170.963 387.628 170.963C387.628 170.964 387.628 170.965 387.628 170.966C387.628 170.967 387.628 170.967 387.628 170.968C387.628 170.969 387.628 170.97 387.628 170.971C387.628 170.972 387.628 170.972 387.628 170.973C387.628 170.974 387.628 170.975 387.628 170.976C387.628 170.976 387.628 170.977 387.628 170.978C387.628 170.979 387.628 170.98 387.628 170.98C387.628 170.981 387.628 170.982 387.628 170.983C387.628 170.984 387.628 170.984 387.628 170.985C387.628 170.986 387.628 170.987 387.628 170.988C387.628 170.988 387.628 170.989 387.628 170.99C387.628 170.991 387.628 170.992 387.628 170.992C387.628 170.993 387.628 170.994 387.628 170.995C387.628 170.996 387.628 170.996 387.628 170.997C387.628 170.998 387.628 170.999 387.628 171C387.628 171 387.628 171.001 387.628 171.002C387.628 171.003 387.628 171.004 387.628 171.004C387.628 171.005 387.628 171.006 387.628 171.007C387.628 171.008 387.628 171.008 387.628 171.009C387.628 171.01 387.628 171.011 387.628 171.012C387.628 171.012 387.628 171.013 387.628 171.014C387.628 171.015 387.628 171.015 387.628 171.016C387.628 171.017 387.628 171.018 387.628 171.019C387.628 171.019 387.628 171.02 387.628 171.021C387.628 171.022 387.628 171.023 387.628 171.023C387.628 171.024 387.628 171.025 387.628 171.026C387.628 171.026 387.628 171.027 387.628 171.028C387.628 171.029 387.628 171.03 387.628 171.03C387.628 171.031 387.628 171.032 387.628 171.033C387.628 171.033 387.628 171.034 387.628 171.035C387.628 171.036 387.628 171.037 387.628 171.037C387.628 171.038 387.628 171.039 387.628 171.04C387.628 171.04 387.628 171.041 387.628 171.042C387.628 171.043 387.628 171.044 387.628 171.044C387.628 171.045 387.628 171.046 387.628 171.047C387.628 171.047 387.628 171.048 387.628 171.049C387.628 171.05 387.628 171.05 387.628 171.051C387.628 171.052 387.628 171.053 387.628 171.053C387.628 171.054 387.628 171.055 387.628 171.056C387.628 171.057 387.628 171.057 387.628 171.058C387.628 171.059 387.628 171.06 387.628 171.06C387.628 171.061 387.628 171.062 387.628 171.063C387.628 171.063 387.628 171.064 387.628 171.065C387.628 171.066 387.628 171.066 387.628 171.067C387.628 171.068 387.628 171.069 387.628 171.069C387.628 171.07 387.628 171.071 387.628 171.072C387.628 171.072 387.628 171.073 387.628 171.074C387.628 171.075 387.628 171.075 387.628 171.076C387.628 171.077 387.628 171.078 387.628 171.078C387.628 171.079 387.628 171.08 387.628 171.081C387.628 171.081 387.628 171.082 387.628 171.083C387.628 171.084 387.628 171.084 387.628 171.085C387.628 171.086 387.628 171.087 387.628 171.087C387.628 171.088 387.628 171.089 387.628 171.09C387.628 171.09 387.628 171.091 387.628 171.092C387.628 171.093 387.628 171.093 387.628 171.094C387.628 171.095 387.628 171.096 387.628 171.096C387.628 171.097 387.628 171.098 387.628 171.099C387.628 171.099 387.628 171.1 387.628 171.101C387.628 171.102 387.628 171.102 387.628 171.103C387.628 171.104 387.628 171.104 387.628 171.105C387.628 171.106 387.628 171.107 387.628 171.107C387.628 171.108 387.628 171.109 387.628 171.11C387.628 171.11 387.628 171.111 387.628 171.112C387.628 171.113 387.628 171.113 387.628 171.114C387.628 171.115 387.628 171.115 387.628 171.116C387.628 171.117 387.628 171.118 387.628 171.118C387.628 171.119 387.628 171.12 387.628 171.121C387.628 171.121 387.628 171.122 387.628 171.123C387.628 171.123 387.628 171.124 387.628 171.125C387.628 171.126 387.628 171.126 387.628 171.127C387.628 171.128 387.628 171.128 387.628 171.129C387.628 171.13 387.628 171.131 387.628 171.131C387.628 171.132 387.628 171.133 387.628 171.134C387.628 171.134 387.628 171.135 387.628 171.136C387.628 171.136 387.628 171.137 387.628 171.138C387.628 171.139 387.628 171.139 387.628 171.14C387.628 171.141 387.628 171.141 387.628 171.142C387.628 171.143 387.628 171.144 387.628 171.144C387.628 171.145 387.628 171.146 387.628 171.146C387.628 171.147 387.628 171.148 387.628 171.148C387.628 171.149 387.628 171.15 387.628 171.151C387.628 171.151 387.628 171.152 387.628 171.153C387.628 171.153 387.628 171.154 387.628 171.155C387.628 171.156 387.628 171.156 387.628 171.157C387.628 171.158 387.628 171.158 387.628 171.159C387.628 171.16 387.628 171.16 387.628 171.161C387.628 171.162 387.628 171.163 387.628 171.163C387.628 171.164 387.628 171.165 387.628 171.165C387.628 171.166 387.628 171.167 387.628 171.167C387.628 171.168 387.628 171.169 387.628 171.17C387.628 171.17 387.628 171.171 387.628 171.172C387.628 171.172 387.628 171.173 387.628 171.174C387.628 171.174 387.628 171.175 387.628 171.176C387.628 171.176 387.628 171.177 387.628 171.178C387.628 171.179 387.628 171.179 387.628 171.18C387.628 171.181 387.628 171.181 387.628 171.182C387.628 171.183 387.628 171.183 387.628 171.184H407.628ZM407.115 172.768C407.566 171.414 407.986 169.93 408.381 168.349L388.979 163.499C388.673 164.723 388.391 165.694 388.141 166.444L407.115 172.768ZM408.167 169.086C411.262 159.801 412.888 150.665 412.888 141.728H392.888C392.888 148.22 391.709 155.215 389.193 162.762L408.167 169.086ZM412.888 141.728C412.888 127.144 407.549 114.891 396.044 106.742L384.484 123.062C389.812 126.836 392.888 132.467 392.888 141.728H412.888ZM396.208 106.86C385.34 98.8272 370.71 96.5966 354.117 98.1051L355.927 118.023C370.193 116.726 379.058 119.054 384.32 122.944L396.208 106.86ZM353.989 98.1175C325.738 101.053 293.912 109.983 258.62 124.599L266.272 143.077C300.412 128.938 330.303 120.686 356.055 118.01L353.989 98.1175ZM258.59 124.611C234.588 134.642 211.82 146.473 190.294 160.106L200.995 177.002C221.549 163.985 243.315 152.671 266.302 143.065L258.59 124.611ZM190.229 160.147C169.031 173.8 150.573 188.437 134.921 204.089L149.063 218.231C163.569 203.725 180.878 189.959 201.059 176.961L190.229 160.147ZM134.921 204.089C119.465 219.545 108.348 235.623 102.112 252.383L120.856 259.357C125.842 245.959 135.063 232.231 149.063 218.231L134.921 204.089ZM102.54 251.398C100.301 255.874 99.3801 260.805 99.3801 265.864H119.38C119.38 263.209 119.861 261.476 120.428 260.342L102.54 251.398ZM99.3801 265.864C99.3801 271.095 100.699 276.123 103.625 280.568C106.514 284.956 110.592 288.207 115.251 290.566C124.282 295.138 136.562 296.904 150.934 296.904V276.904C137.603 276.904 129.106 275.163 124.286 272.722C122.019 271.575 120.904 270.442 120.33 269.57C119.793 268.755 119.38 267.646 119.38 265.864H99.3801ZM150.934 296.904C164.95 296.904 180.097 295.43 196.342 292.542L192.842 272.85C177.528 275.573 163.569 276.904 150.934 276.904V296.904ZM196.305 292.548C212.54 289.725 231.21 286.202 252.309 281.982L248.387 262.37C227.406 266.566 208.906 270.057 192.879 272.844L196.305 292.548ZM252.309 281.982L270.719 278.3L266.797 258.688L248.387 262.37L252.309 281.982ZM270.402 278.358C276.21 277.39 281.796 276.916 287.168 276.916V256.916C280.617 256.916 273.93 257.494 267.114 258.63L270.402 278.358ZM287.168 276.916C297.135 276.916 303.881 278.951 308.347 282.007L319.641 265.501C310.782 259.439 299.644 256.916 287.168 256.916V276.916ZM308.347 282.007C312.289 284.704 313.988 287.929 313.988 292.69H333.988C333.988 281.32 329.025 271.921 319.641 265.501L308.347 282.007ZM313.988 292.69C313.988 297.363 311.907 304.237 306.024 313.716L323.016 324.264C329.757 313.404 333.988 302.745 333.988 292.69H313.988ZM306.058 313.662C300.44 322.585 293.802 331.223 286.121 339.571L300.839 353.113C309.289 343.928 316.678 334.331 322.982 324.318L306.058 313.662ZM286.26 339.423C278.493 347.528 269.846 355.501 260.307 363.337L273.001 378.791C283.1 370.496 292.337 361.988 300.7 353.261L286.26 339.423ZM260.374 363.282C241.097 378.839 220.524 391.139 198.646 400.227L206.318 418.697C230.026 408.849 252.235 395.55 272.934 378.846L260.374 363.282ZM198.646 400.227C176.815 409.295 156.557 413.664 137.784 413.664V433.664C159.688 433.664 182.562 428.565 206.318 418.697L198.646 400.227Z" fill="#BE231B" mask="url(#path-2-outside-1_1_8)"/>
</svg>
